# xmcd
# 
# Track frame offsets:
#     150
#     18301
#     38970
#     58139
# 
# Disc length: 1015
# 
# Revision: 0
# Processed by: cddbd v1.5.2PL0 Copyright (c) Steve Scherf et al.
# Submitted via: fre:ac v1.0.31
# 
DISCID=2e03f504
DTITLE=ClariS - CheerS
DYEAR=2018
DGENRE=Anime
TTITLE0=CheerS
TTITLE1=ねがい
TTITLE2=Wake Up -season 02-
TTITLE3=CheerS -Instrumental-
EXTD=YEAR: 2018
EXTT0=
EXTT1=
EXTT2=
EXTT3=
PLAYORDER=
